<svg xmlns="http://www.w3.org/2000/svg" viewBox="0 0 508 368.1">
    <g fill="currentColor">
        <path d="M188 80.6 170.2 184h-26.7l27.7-141.8zM331.4 184h-26.7L287.1 80.8 271.5 116l-13.9 30.9-12.3-28L259 88.4 299 0z"/>
        <path d="m251.3 160.7-14 31.2-49.2-111.3-17-38.4L179.4 0l59.5 133zm20.1-44.7-13.9 30.9-12.3-28L192.5 0h27L259 88.3zm59.9 68c5.2 25.5 16.7 47.9 43.4 49 8.7.5 24.5-3.3 23.4-11.8-1.3-10-18.2-11.9-28.1-11.8-21.6.2-54.6 12.6-84 22a434 434 0 0 1-43.5 11.8 137 137 0 0 1-45.5 2.7l.8-6.4a131 131 0 0 0 43-4.3c14-3.5 28-8.5 41.8-13.6 13.8-5.2 27.6-10.8 41.8-15.8a177 177 0 0 1 45-11.2c23.4-1.7 46.6 6.8 45.8 30-1 17.4-21.7 27.6-40.7 28a63 63 0 0 1-47.3-21 107 107 0 0 1-22.6-47.6z"/>
        <path d="M231 239c-21.2 4.5-25.6-24.1-11.9-41.2-.8 12 13.2 21 11.9 33.2a19 19 0 0 1-12.6-13.8c.6 10.3 5.4 17.2 18 20.6zm10 2.7c-19-1.8-20 23.9-6.1 37.5-2-10.6 9.4-19.8 7-30.4a17 17 0 0 0-9.6 13.4c-.6-9.1 3-15.7 13.6-20zm-75.4 28.8q3.8-.4 7.7-.4c3.3 0 7-1.8 7.3-4.8.2-1.6-.6-3.6-.5-5.2a261 261 0 0 0-14.5 10.4m13.4-13.2a37 37 0 0 0-13.7 9c-1.3 1.4-2.5 3-4 4-4.8 3.6-11.9 3.3-18 2.5-5.5-.7-11.3-1.8-14.8-5.5a16 16 0 0 1-3.7-9c1.4 4.1 5.8 6.7 10.3 8q2.4.8 5 .7c4.3-.3 7.5-3.7 10.6-7 9.4 2.3 19.3.1 28.3-2.7"/>
        <path d="M179.2 254.4c-10.3 1.5-21.1 5.3-31.3 2.1a39 39 0 0 0 14-17q1-2.8 2.3-5.4c2.4-3.9 7.5-6.1 11-8a32 32 0 0 1 3.9 13.5l-.5 6.7a29 29 0 0 0 .6 8Zm-33.9 5a14 14 0 0 1-11.5 4.1l-2.1-.5a7 7 0 0 1-2.5-2 11 11 0 0 1-2-9.2 13 13 0 0 1 5.7-7.5c1.9 6.2 7 11 12.4 15Z"/>
        <path d="M145 253.1a45 45 0 0 0 9-17.6q1.6 4.7 2.6 9.1c-.7 2.1-2.6 3.6-4.5 4.9l-3.4 2.3q-1.6 1.2-3.7 1.3m13.7-13c-1.5-2.5-2.1-5.5-3-8.3-1-3.6-2.6-7-3.9-10.6a23 23 0 0 0 20.4 3.6c-3 2.2-6.8 3.6-9.3 6.5-2.3 2.7-3.3 6.2-4.2 8.9m-15.5 10a40 40 0 0 0-.8-12c-.3-1.6-.8-3.3-.4-5 .2-.9.5-1.9 0-2.6-.7-.8-2-.3-3 .3.6-1.8 2.8-2.6 4.5-2.2s3.3 1.5 5 2.4q1.6 1.3 3.4 1.4a40 40 0 0 1-5 13.9c-1 1.7-2.2 3.4-3.7 3.7Z"/>
        <path d="M140.6 241.4a6 6 0 0 1-3.5.8q-.5 0-.8-.2-.4-.7 0-1.4 1.3-3.6 3.4-6.7.4 4 1 7.5"/>
        <path d="M126.7 247.5a40 40 0 0 1 7-7.2l1.3-6.6a13 13 0 0 1 1.4-3.6 9 9 0 0 1 6.7-3.7 13 13 0 0 1 7.7 1.7c-.3-1.8-.5-3.5-1.6-5-3.3-1.3-7-.7-10.3.8s-6.1 4-8.9 6.6a23 23 0 0 0-3.7 4 11 11 0 0 0 .4 13"/>
        <path d="M135.5 224c4-3.2 9.3-4.3 13.9-2.4a10 10 0 0 0-1.6-5.2 6 6 0 0 0-4.2-2.6 4 4 0 0 0-4.1 2.6q-.4 1.3-1 2.1c-.6.6-1.4.6-2 1q-1.2 1-1.2 2.5c-.1 1 0 2 .2 2m5.3 21.4a12 12 0 0 1-5.1-.2 11 11 0 0 0 5.8 6.2q.4-3.3-.7-6m10.6-26.5c-1-2-2-4-3.7-5.5-.9-.8-2-1.6-1.6-3.3 1.4-1.5 3.6-1.3 5.6-1l8 1.7a59 59 0 0 1 14 5.6q-.1 3.4.8 6.6c-7.5.9-17.1-.4-23-4.1m37.9 57c-5.9-5.4-6.5-13.6-7-21.2q-.4-7.7-.5-15.2c3 .8 5.1 3.5 6.4 6.3 1.2 2.8 1.8 5.8 2.8 8.7q1 2.2 1.5 4.4c1 5.8-4.8 11.5-3.2 17m-7.7-38.5c-1.5-3.2-1.7-6.8-2.7-10.2q-1.2-3.7-2.6-7.3c-1.6-4.8-2-9.9-2.3-15.7q3.4.2 6.7 1.5c3.3 1.3 4 2.6 5.4 4.7s1.7 5.1.8 7.5c-.4.9-1 1.7-.8 2.8q1 2.1 1.4 4.2a6 6 0 0 1-.7 4.3c-1 1.5-2.9 2.2-4 3.6q-1.3 1.8-1.2 4.6m12.7 20a32 32 0 0 0-6-14.3q-1.6-2-2.7-4.2c-1.1-2.2-.9-3.4 0-4.8q.9-1.4 2.1-2.6a11 11 0 0 0 1.8-4.2 26 26 0 0 1 9.3 10.1 12 12 0 0 1 1.5 4.6q0 2.6-.8 5.2c-1 3.8-2.1 7.8-5.2 10.2"/>
        <path d="M190.8 271a25 25 0 0 0 14.3 23.2 15 15 0 0 1-3.7-7.2c-.3-2.6.9-5.3.9-8 0-5.8-4.8-10.8-4.9-16.6-3 2.6-6.5 5.8-6.6 8.6m2.7-70.3c1.3 2.5 1.4 5.5 1 8.2s-1.2 5.5-1.5 8.3c-.3 3 0 6.3-1.7 8.7l8 7.3c1-8 1.5-16.5-1.4-24.1a45 45 0 0 0-4.4-8.4m67 30.5v-11.8l9.8 9.1zm26.8-1.8 11 8.2v-14z"/>
    </g>
    <path 
      d="M0 367.4v-44.6h8.3l15.2 22.8 15.3-22.8h8.3v44.6h-9.3v-27.2l-14.3 21.1-14.3-21.1v27.2zm69.6 0L88 322.8h8.8l18.4 44.6h-10.5l-3-7.5H83.1l-3 7.5zM85.9 352h13l-6.5-16.2zm51.8 15.4v-44.6h18.7q6.2 0 10.6 4.3a14 14 0 0 1 4.5 10.4c0 5.7-3.1 10.6-8 12.7l11 17.2h-11.2l-9.2-14.9h-6.6v14.9zm9.8-23.6h7.8c3.8 0 6.4-2.4 6.4-6.2 0-3.4-2.5-5.9-5.6-5.9h-8.6zm48.3 23.6v-6.7l23.7-29h-21.4v-9h34.3v7.5l-23 28.2h23.5v9zm61.7 0v-44.6H288v9h-20.6v8.3h19.3v8.8h-19.3v9.5h21v9zm56.5 0v-44.6h9.9v35.6h17.4v9zm50 0v-44.6h9.9v35.6h17.4v9zm49.2-44.6h9.8v25.5q0 10.8 9.2 10.8c9.1 0 9-3.6 9-10.8v-25.5h10v26.5q0 9-5.5 14-5.3 4.8-13.5 4.8c-8.2 0-10-1.6-13.7-4.8q-5.3-4.9-5.3-14zm67 30.5q3.6 5.9 11.3 5.9c4.5 0 6.6-2 6.6-4.4q-.1-2.4-2.4-3.7a15 15 0 0 0-3.8-1.7l-5-1.8c-7-2.5-10.8-6.2-10.8-12.9q0-5.8 4.3-9.1 4.3-3.5 10.6-3.5 9.6 0 14.8 7.3l-6.6 5q-2.7-3.5-8-3.5c-3.2 0-5.3 1.6-5.3 3.7q-.2 2.1 1.7 3.2l2 1 3.2 1 3.8 1.4c8.1 3.1 11.4 6.9 11.4 13.3 0 8.2-5.6 13.6-16.6 13.6-9 0-15.3-4-18.3-9.8z"
      fill="currentColor"
    />
</svg>
