<svg xmlns="http://www.w3.org/2000/svg" viewBox="0 0 512 512">
    <g fill="#fff">
        <path d="m122.6 147.5-29 168.7H49.8L95.1 84.9zm234 168.7h-43.7l-28.7-168.4-25.4 57.4-22.7 50.5-20-45.7 22.3-49.8L303.6 16z"/>
        <path d="M225.8 278.2 203 329l-80.3-181.6L95 84.8 108.5 16l97.1 217zm32.8-73L236 255.8 216 210 130 16h44l64.5 144zm97.8 111c8.4 41.6 27.2 78.2 70.8 80 14.2.8 40-5.4 38.1-19.3-2-16.3-29.6-19.4-45.8-19.2-35.2.3-89 20.5-137 35.8q-35 11.5-71 19.3-36.8 8.4-74.3 4.4l1.3-10.4c23.7 1.5 47.4-.9 70.2-7a665 665 0 0 0 68.2-22.3c22.5-8.4 45-17.6 68.2-25.7a289 289 0 0 1 73.4-18.3c38.2-2.8 76 11 74.7 49-1.6 28.3-35.4 45-66.4 45.6-29.4.2-57.5-12.3-77.1-34.2a175 175 0 0 1-36.9-77.7z"/>
        <path d="M192.7 406c-34.6 7.3-41.8-39.4-19.4-67.3-1.3 19.6 21.5 34.3 19.4 54.2a31 31 0 0 1-20.5-22.5c1 16.8 8.8 28 29.3 33.6zm16.3 4.3c-31-2.9-32.6 39-10 61.2-3.2-17.3 15.4-32.3 11.5-49.6a28 28 0 0 0-15.7 21.9c-1-14.9 5-25.6 22.2-32.7zm-123 47q6.1-.6 12.6-.6c5.3 0 11.4-3 11.9-7.8.3-2.7-1-6-.9-8.5q-12.1 8-23.6 17m21.9-21.6q-12.8 4.9-22.4 14.7c-2.1 2.3-4 4.9-6.5 6.5-7.8 5.9-19.4 5.4-29.4 4-9-1-18.4-2.9-24.1-8.9a26 26 0 0 1-6-14.7c2.2 6.7 9.4 11 16.7 13q4 1.4 8.2 1.2c7-.5 12.2-6 17.3-11.4 15.3 3.8 31.5.2 46.2-4.4"/>
        <path d="M108.2 431c-16.8 2.5-34.4 8.7-51 3.5A64 64 0 0 0 80 406.8q1.5-4.6 3.7-8.9c4-6.3 12.2-10 18-13a52 52 0 0 1 6.3 22l-.8 11q-.5 6.5 1 13zm-55.3 8.2c-5 5-11.8 7.5-18.8 6.7l-3.4-.8q-2.4-1.2-4-3.3a18 18 0 0 1-3.3-15 21 21 0 0 1 9.3-12.2A51 51 0 0 0 52.9 439z"/>
        <path d="M52.4 429Q63 416.2 67 400.1a148 148 0 0 1 4.2 14.9c-1.1 3.4-4.2 5.8-7.3 8l-5.6 3.7q-2.5 2-6 2.1m22.4-21.2c-2.5-4-3.5-9-5-13.5-1.6-5.9-4.2-11.4-6.3-17.3a38 38 0 0 0 33.3 5.9c-5 3.6-11.1 5.8-15.2 10.6-3.7 4.4-5.4 10.1-6.8 14.5m-25.3 16.3q.7-9.9-1.3-19.6c-.5-2.6-1.4-5.4-.7-8.1.3-1.5.8-3.1 0-4.3-1.1-1.3-3.3-.5-4.9.5 1-3 4.6-4.2 7.3-3.6s5.4 2.5 8.2 4a10 10 0 0 0 5.6 2.2q-2 12.1-8.2 22.7c-1.6 2.8-3.6 5.6-6 6z"/>
        <path d="M45.2 409.9a10 10 0 0 1-5.7 1.3q-.8 0-1.3-.4-.7-1.1 0-2.2 2-6 5.5-11 .7 6.6 1.7 12.3"/>
        <path d="M22.5 419.8q5-6.6 11.5-11.7l2-10.8q.8-3 2.4-5.9c2.5-3.5 6.5-5.7 10.9-6q6.8-.5 12.6 2.8c-.5-3-.9-5.8-2.7-8.2a22 22 0 0 0-16.8 1.3A57 57 0 0 0 28 392.1q-3.4 2.8-6 6.5a18 18 0 0 0 .6 21.2"/>
        <path d="M36.9 381.5a23 23 0 0 1 22.7-4q-.2-4.6-2.6-8.4a10 10 0 0 0-6.9-4.3c-3-.2-5.7 1.5-6.7 4.3q-.7 2-1.6 3.4c-1 1-2.3 1-3.3 1.6a5 5 0 0 0-2 4.1c0 1.6 0 3.3.4 3.3m8.6 34.9q-4.1.8-8.3-.3a18 18 0 0 0 9.5 10q.6-5.3-1.2-9.7M62.8 373c-1.6-3.2-3.2-6.5-6-9-1.5-1.2-3.3-2.5-2.6-5.3 2.3-2.5 5.9-2.1 9.1-1.6l13 2.7q12 3.1 23 9.2-.2 5.6 1.2 10.7A63 63 0 0 1 63 373m61.8 93c-9.6-8.8-10.6-22.2-11.4-34.6q-.6-12.5-.8-24.8c4.9 1.4 8.3 5.8 10.4 10.3s3 9.5 4.6 14.2q1.5 3.6 2.5 7.2c1.6 9.5-7.9 18.8-5.3 27.7m-12.5-62.8c-2.5-5.2-2.8-11-4.4-16.6l-4.3-12a96 96 0 0 1-3.7-25.5q5.5.3 10.9 2.4c5.4 2.1 6.5 4.2 8.8 7.7 2.3 3.4 2.8 8.3 1.3 12.2-.6 1.5-1.6 2.8-1.3 4.6q1.7 3.5 2.3 6.8.7 3.8-1.1 7c-1.7 2.5-4.8 3.7-6.6 6q-2 2.9-2 7.4M133 436a52 52 0 0 0-9.8-23.4 39 39 0 0 1-4.4-6.8c-1.8-3.6-1.5-5.6 0-7.9q1.5-2.2 3.4-4.2a18 18 0 0 0 3-6.8q9.7 6.2 15.1 16.4 2 3.5 2.5 7.5 0 4.3-1.3 8.5c-1.7 6.2-3.5 12.8-8.5 16.7"/>
        <path d="M127.1 458.2c-.4 16 8.8 31 23.4 37.8q-4.7-5-6-11.7c-.6-4.3 1.4-8.7 1.4-13.1 0-9.5-7.9-17.6-8-27-4.9 4.2-10.6 9.4-10.8 14m4.4-114.7c2.1 4 2.3 9 1.7 13.3-.7 4.4-2 9-2.5 13.6-.5 4.9 0 10.3-2.8 14.2l13 11.9c1.7-13 2.5-27-2.2-39.3a73 73 0 0 0-7.2-13.7m109.3 49.7V374l16 14.8zm43.8-3 18 13.5v-22.9z"/>
    </g>
</svg>
